<svg width="512" height="512" viewBox="0 0 512 512" fill="none" xmlns="http://www.w3.org/2000/svg">
  <defs>
    <linearGradient id="grad1" x1="0%" y1="0%" x2="100%" y2="100%">
      <stop offset="0%" style="stop-color:#3B82F6;stop-opacity:1" />
      <stop offset="100%" style="stop-color:#6366F1;stop-opacity:1" />
    </linearGradient>
    <linearGradient id="grad2" x1="100%" y1="0%" x2="0%" y2="100%">
      <stop offset="0%" style="stop-color:#60A5FA;stop-opacity:1" />
      <stop offset="100%" style="stop-color:#818CF8;stop-opacity:1" />
    </linearGradient>
  </defs>
  
  <!-- Abstract Shield / R Shape -->
  <path d="M256 48 C 256 48, 100 100, 100 240 C 100 360, 256 464, 256 464 C 256 464, 412 360, 412 240 C 412 100, 256 48, 256 48 Z" fill="url(#grad1)" stroke="url(#grad2)" stroke-width="12" />
  
  <!-- Inner Grid / Structure Elements -->
  <path d="M256 120 V 380" stroke="white" stroke-width="16" stroke-linecap="round" stroke-opacity="0.3" />
  <path d="M180 200 H 332" stroke="white" stroke-width="16" stroke-linecap="round" stroke-opacity="0.3" />
  <path d="M180 280 H 332" stroke="white" stroke-width="16" stroke-linecap="round" stroke-opacity="0.3" />
  
  <!-- Stylized 'R' Curve overlay -->
  <path d="M200 160 H 260 C 290 160, 310 180, 310 210 C 310 240, 290 260, 260 260 H 200 V 160 Z" fill="none" stroke="white" stroke-width="24" stroke-linecap="round" stroke-linejoin="round" />
  <path d="M260 260 L 310 340" stroke="white" stroke-width="24" stroke-linecap="round" stroke-linejoin="round" />
  
  <!-- Tech Dots -->
  <circle cx="256" cy="90" r="6" fill="white" fill-opacity="0.8" />
  <circle cx="256" cy="420" r="6" fill="white" fill-opacity="0.8" />
  <circle cx="130" cy="240" r="6" fill="white" fill-opacity="0.6" />
  <circle cx="382" cy="240" r="6" fill="white" fill-opacity="0.6" />

</svg>
